<svg width="900" height="200" viewBox="0 0 900 200" xmlns="http://www.w3.org/2000/svg">
  <defs>
    <!-- Dark base gradient -->
    <linearGradient id="bgGrad" x1="0%" y1="0%" x2="100%" y2="100%">
      <stop offset="0%" style="stop-color:#0d1117;stop-opacity:1" />
      <stop offset="50%" style="stop-color:#0f1923;stop-opacity:1" />
      <stop offset="100%" style="stop-color:#0d1117;stop-opacity:1" />
    </linearGradient>
    <!-- Blue accent glow -->
    <radialGradient id="glowLeft" cx="20%" cy="50%" r="40%">
      <stop offset="0%" style="stop-color:#1a3a5c;stop-opacity:0.6" />
      <stop offset="100%" style="stop-color:#0d1117;stop-opacity:0" />
    </radialGradient>
    <radialGradient id="glowRight" cx="80%" cy="50%" r="40%">
      <stop offset="0%" style="stop-color:#0e2a4a;stop-opacity:0.5" />
      <stop offset="100%" style="stop-color:#0d1117;stop-opacity:0" />
    </radialGradient>
    <!-- Center name glow -->
    <radialGradient id="glowCenter" cx="50%" cy="50%" r="35%">
      <stop offset="0%" style="stop-color:#1e4a7a;stop-opacity:0.4" />
      <stop offset="100%" style="stop-color:#0d1117;stop-opacity:0" />
    </radialGradient>
    <filter id="textGlow">
      <feGaussianBlur stdDeviation="3" result="blur" />
      <feMerge>
        <feMergeNode in="blur" />
        <feMergeNode in="SourceGraphic" />
      </feMerge>
    </filter>
    <filter id="subtleGlow">
      <feGaussianBlur stdDeviation="1.5" result="blur" />
      <feMerge>
        <feMergeNode in="blur" />
        <feMergeNode in="SourceGraphic" />
      </feMerge>
    </filter>
  </defs>

  <!-- Background -->
  <rect width="900" height="200" fill="url(#bgGrad)" />
  <rect width="900" height="200" fill="url(#glowLeft)" />
  <rect width="900" height="200" fill="url(#glowRight)" />
  <rect width="900" height="200" fill="url(#glowCenter)" />

  <!-- Architectural dot grid: 30px spacing -->
  <!-- Row 1 y=10 -->
  <g fill="#1e3a5f" opacity="0.55">
    <circle cx="10" cy="10" r="1.2"/><circle cx="40" cy="10" r="1.2"/><circle cx="70" cy="10" r="1.2"/><circle cx="100" cy="10" r="1.2"/><circle cx="130" cy="10" r="1.2"/><circle cx="160" cy="10" r="1.2"/><circle cx="190" cy="10" r="1.2"/><circle cx="220" cy="10" r="1.2"/><circle cx="250" cy="10" r="1.2"/><circle cx="280" cy="10" r="1.2"/><circle cx="310" cy="10" r="1.2"/><circle cx="340" cy="10" r="1.2"/><circle cx="370" cy="10" r="1.2"/><circle cx="400" cy="10" r="1.2"/><circle cx="430" cy="10" r="1.2"/><circle cx="460" cy="10" r="1.2"/><circle cx="490" cy="10" r="1.2"/><circle cx="520" cy="10" r="1.2"/><circle cx="550" cy="10" r="1.2"/><circle cx="580" cy="10" r="1.2"/><circle cx="610" cy="10" r="1.2"/><circle cx="640" cy="10" r="1.2"/><circle cx="670" cy="10" r="1.2"/><circle cx="700" cy="10" r="1.2"/><circle cx="730" cy="10" r="1.2"/><circle cx="760" cy="10" r="1.2"/><circle cx="790" cy="10" r="1.2"/><circle cx="820" cy="10" r="1.2"/><circle cx="850" cy="10" r="1.2"/><circle cx="880" cy="10" r="1.2"/>
    <!-- Row 2 y=40 -->
    <circle cx="10" cy="40" r="1.2"/><circle cx="40" cy="40" r="1.2"/><circle cx="70" cy="40" r="1.2"/><circle cx="100" cy="40" r="1.2"/><circle cx="130" cy="40" r="1.2"/><circle cx="160" cy="40" r="1.2"/><circle cx="190" cy="40" r="1.2"/><circle cx="220" cy="40" r="1.2"/><circle cx="250" cy="40" r="1.2"/><circle cx="280" cy="40" r="1.2"/><circle cx="310" cy="40" r="1.2"/><circle cx="340" cy="40" r="1.2"/><circle cx="370" cy="40" r="1.2"/><circle cx="400" cy="40" r="1.2"/><circle cx="430" cy="40" r="1.2"/><circle cx="460" cy="40" r="1.2"/><circle cx="490" cy="40" r="1.2"/><circle cx="520" cy="40" r="1.2"/><circle cx="550" cy="40" r="1.2"/><circle cx="580" cy="40" r="1.2"/><circle cx="610" cy="40" r="1.2"/><circle cx="640" cy="40" r="1.2"/><circle cx="670" cy="40" r="1.2"/><circle cx="700" cy="40" r="1.2"/><circle cx="730" cy="40" r="1.2"/><circle cx="760" cy="40" r="1.2"/><circle cx="790" cy="40" r="1.2"/><circle cx="820" cy="40" r="1.2"/><circle cx="850" cy="40" r="1.2"/><circle cx="880" cy="40" r="1.2"/>
    <!-- Row 3 y=70 -->
    <circle cx="10" cy="70" r="1.2"/><circle cx="40" cy="70" r="1.2"/><circle cx="70" cy="70" r="1.2"/><circle cx="100" cy="70" r="1.2"/><circle cx="130" cy="70" r="1.2"/><circle cx="160" cy="70" r="1.2"/><circle cx="190" cy="70" r="1.2"/><circle cx="220" cy="70" r="1.2"/><circle cx="250" cy="70" r="1.2"/><circle cx="280" cy="70" r="1.2"/><circle cx="310" cy="70" r="1.2"/><circle cx="340" cy="70" r="1.2"/><circle cx="370" cy="70" r="1.2"/><circle cx="400" cy="70" r="1.2"/><circle cx="430" cy="70" r="1.2"/><circle cx="460" cy="70" r="1.2"/><circle cx="490" cy="70" r="1.2"/><circle cx="520" cy="70" r="1.2"/><circle cx="550" cy="70" r="1.2"/><circle cx="580" cy="70" r="1.2"/><circle cx="610" cy="70" r="1.2"/><circle cx="640" cy="70" r="1.2"/><circle cx="670" cy="70" r="1.2"/><circle cx="700" cy="70" r="1.2"/><circle cx="730" cy="70" r="1.2"/><circle cx="760" cy="70" r="1.2"/><circle cx="790" cy="70" r="1.2"/><circle cx="820" cy="70" r="1.2"/><circle cx="850" cy="70" r="1.2"/><circle cx="880" cy="70" r="1.2"/>
    <!-- Row 4 y=100 -->
    <circle cx="10" cy="100" r="1.2"/><circle cx="40" cy="100" r="1.2"/><circle cx="70" cy="100" r="1.2"/><circle cx="100" cy="100" r="1.2"/><circle cx="130" cy="100" r="1.2"/><circle cx="160" cy="100" r="1.2"/><circle cx="190" cy="100" r="1.2"/><circle cx="220" cy="100" r="1.2"/><circle cx="250" cy="100" r="1.2"/><circle cx="280" cy="100" r="1.2"/><circle cx="310" cy="100" r="1.2"/><circle cx="340" cy="100" r="1.2"/><circle cx="370" cy="100" r="1.2"/><circle cx="400" cy="100" r="1.2"/><circle cx="430" cy="100" r="1.2"/><circle cx="460" cy="100" r="1.2"/><circle cx="490" cy="100" r="1.2"/><circle cx="520" cy="100" r="1.2"/><circle cx="550" cy="100" r="1.2"/><circle cx="580" cy="100" r="1.2"/><circle cx="610" cy="100" r="1.2"/><circle cx="640" cy="100" r="1.2"/><circle cx="670" cy="100" r="1.2"/><circle cx="700" cy="100" r="1.2"/><circle cx="730" cy="100" r="1.2"/><circle cx="760" cy="100" r="1.2"/><circle cx="790" cy="100" r="1.2"/><circle cx="820" cy="100" r="1.2"/><circle cx="850" cy="100" r="1.2"/><circle cx="880" cy="100" r="1.2"/>
    <!-- Row 5 y=130 -->
    <circle cx="10" cy="130" r="1.2"/><circle cx="40" cy="130" r="1.2"/><circle cx="70" cy="130" r="1.2"/><circle cx="100" cy="130" r="1.2"/><circle cx="130" cy="130" r="1.2"/><circle cx="160" cy="130" r="1.2"/><circle cx="190" cy="130" r="1.2"/><circle cx="220" cy="130" r="1.2"/><circle cx="250" cy="130" r="1.2"/><circle cx="280" cy="130" r="1.2"/><circle cx="310" cy="130" r="1.2"/><circle cx="340" cy="130" r="1.2"/><circle cx="370" cy="130" r="1.2"/><circle cx="400" cy="130" r="1.2"/><circle cx="430" cy="130" r="1.2"/><circle cx="460" cy="130" r="1.2"/><circle cx="490" cy="130" r="1.2"/><circle cx="520" cy="130" r="1.2"/><circle cx="550" cy="130" r="1.2"/><circle cx="580" cy="130" r="1.2"/><circle cx="610" cy="130" r="1.2"/><circle cx="640" cy="130" r="1.2"/><circle cx="670" cy="130" r="1.2"/><circle cx="700" cy="130" r="1.2"/><circle cx="730" cy="130" r="1.2"/><circle cx="760" cy="130" r="1.2"/><circle cx="790" cy="130" r="1.2"/><circle cx="820" cy="130" r="1.2"/><circle cx="850" cy="130" r="1.2"/><circle cx="880" cy="130" r="1.2"/>
    <!-- Row 6 y=160 -->
    <circle cx="10" cy="160" r="1.2"/><circle cx="40" cy="160" r="1.2"/><circle cx="70" cy="160" r="1.2"/><circle cx="100" cy="160" r="1.2"/><circle cx="130" cy="160" r="1.2"/><circle cx="160" cy="160" r="1.2"/><circle cx="190" cy="160" r="1.2"/><circle cx="220" cy="160" r="1.2"/><circle cx="250" cy="160" r="1.2"/><circle cx="280" cy="160" r="1.2"/><circle cx="310" cy="160" r="1.2"/><circle cx="340" cy="160" r="1.2"/><circle cx="370" cy="160" r="1.2"/><circle cx="400" cy="160" r="1.2"/><circle cx="430" cy="160" r="1.2"/><circle cx="460" cy="160" r="1.2"/><circle cx="490" cy="160" r="1.2"/><circle cx="520" cy="160" r="1.2"/><circle cx="550" cy="160" r="1.2"/><circle cx="580" cy="160" r="1.2"/><circle cx="610" cy="160" r="1.2"/><circle cx="640" cy="160" r="1.2"/><circle cx="670" cy="160" r="1.2"/><circle cx="700" cy="160" r="1.2"/><circle cx="730" cy="160" r="1.2"/><circle cx="760" cy="160" r="1.2"/><circle cx="790" cy="160" r="1.2"/><circle cx="820" cy="160" r="1.2"/><circle cx="850" cy="160" r="1.2"/><circle cx="880" cy="160" r="1.2"/>
    <!-- Row 7 y=190 -->
    <circle cx="10" cy="190" r="1.2"/><circle cx="40" cy="190" r="1.2"/><circle cx="70" cy="190" r="1.2"/><circle cx="100" cy="190" r="1.2"/><circle cx="130" cy="190" r="1.2"/><circle cx="160" cy="190" r="1.2"/><circle cx="190" cy="190" r="1.2"/><circle cx="220" cy="190" r="1.2"/><circle cx="250" cy="190" r="1.2"/><circle cx="280" cy="190" r="1.2"/><circle cx="310" cy="190" r="1.2"/><circle cx="340" cy="190" r="1.2"/><circle cx="370" cy="190" r="1.2"/><circle cx="400" cy="190" r="1.2"/><circle cx="430" cy="190" r="1.2"/><circle cx="460" cy="190" r="1.2"/><circle cx="490" cy="190" r="1.2"/><circle cx="520" cy="190" r="1.2"/><circle cx="550" cy="190" r="1.2"/><circle cx="580" cy="190" r="1.2"/><circle cx="610" cy="190" r="1.2"/><circle cx="640" cy="190" r="1.2"/><circle cx="670" cy="190" r="1.2"/><circle cx="700" cy="190" r="1.2"/><circle cx="730" cy="190" r="1.2"/><circle cx="760" cy="190" r="1.2"/><circle cx="790" cy="190" r="1.2"/><circle cx="820" cy="190" r="1.2"/><circle cx="850" cy="190" r="1.2"/><circle cx="880" cy="190" r="1.2"/>
  </g>

  <!-- Accent architectural lines (blueprint style) -->
  <line x1="0" y1="1" x2="900" y2="1" stroke="#1e3a5f" stroke-width="0.5" opacity="0.4"/>
  <line x1="0" y1="199" x2="900" y2="199" stroke="#58a6ff" stroke-width="1" opacity="0.5"/>
  <line x1="0" y1="197" x2="900" y2="197" stroke="#1e3a5f" stroke-width="0.5" opacity="0.3"/>
  <!-- Left vertical accent -->
  <line x1="40" y1="0" x2="40" y2="200" stroke="#1e3a5f" stroke-width="0.5" opacity="0.3"/>
  <!-- Right vertical accent -->
  <line x1="860" y1="0" x2="860" y2="200" stroke="#1e3a5f" stroke-width="0.5" opacity="0.3"/>
  <!-- Corner bracket marks -->
  <path d="M 20 20 L 20 8 L 8 8" stroke="#58a6ff" stroke-width="1.5" fill="none" opacity="0.7"/>
  <path d="M 880 20 L 880 8 L 892 8" stroke="#58a6ff" stroke-width="1.5" fill="none" opacity="0.7"/>
  <path d="M 20 180 L 20 192 L 8 192" stroke="#58a6ff" stroke-width="1.5" fill="none" opacity="0.7"/>
  <path d="M 880 180 L 880 192 L 892 192" stroke="#58a6ff" stroke-width="1.5" fill="none" opacity="0.7"/>

  <!-- Name text with glow -->
  <text x="450" y="90" text-anchor="middle" font-family="'Segoe UI', 'Inter', Arial, sans-serif" font-size="44" font-weight="700" fill="#58a6ff" filter="url(#textGlow)" letter-spacing="2">Irusha Shaveen</text>

  <!-- Subtitle -->
  <text x="450" y="128" text-anchor="middle" font-family="'Segoe UI', 'Inter', Arial, sans-serif" font-size="15" font-weight="400" fill="#8b949e" letter-spacing="1">Full-Stack Developer  ·  Founder, Recca Labs  ·  SLIIT</text>

  <!-- Thin blue accent line under name -->
  <line x1="310" y1="140" x2="590" y2="140" stroke="#58a6ff" stroke-width="1" opacity="0.5"/>
  <circle cx="310" cy="140" r="2" fill="#58a6ff" opacity="0.7"/>
  <circle cx="590" cy="140" r="2" fill="#58a6ff" opacity="0.7"/>
  <circle cx="450" cy="140" r="2.5" fill="#58a6ff" opacity="0.9"/>

  <!-- Profile views label bottom right -->
  <text x="870" y="188" text-anchor="end" font-family="'Segoe UI', Arial, sans-serif" font-size="10" fill="#30363d" letter-spacing="0.5">irushashaveen · github</text>
</svg>
